<svg width="229" height="150" viewBox="0 0 229 150" fill="none" xmlns="http://www.w3.org/2000/svg">
<path d="M111.657 76.3664C110.958 76.3664 110.374 75.7832 110.374 75.0834C110.374 74.3835 110.958 73.8003 111.657 73.8003H117.606C118.306 73.8003 118.889 74.3835 118.889 75.0834C118.889 75.7832 118.306 76.3664 117.606 76.3664H111.657ZM90.8952 61.4364C89.8454 61.4364 88.9123 60.5032 88.9123 59.4535C88.9123 58.4037 89.8454 57.4706 90.8952 57.4706H92.7031C93.3447 57.4706 93.8695 57.004 93.8695 56.3625C94.3944 49.1307 98.7685 42.5405 105.3 39.2745C105.592 39.0995 105.942 39.0412 106.175 39.0412C107.225 39.0412 108.158 39.9744 108.158 41.0241V45.1066C108.158 45.7481 108.683 46.273 109.325 46.273C109.966 46.273 110.491 45.7481 110.491 45.1066V39.0995C110.491 38.1081 111.249 37.2333 112.182 37.1166C112.94 37 113.757 37 114.515 37C115.39 37 116.323 37.0583 117.081 37.1166C118.073 37.2333 118.772 38.0498 118.772 39.0995V45.0483C118.772 45.6898 119.297 46.2147 119.939 46.2147C120.58 46.2147 121.105 45.6898 121.105 45.0483V41.0241C121.105 39.9744 122.038 39.0412 123.088 39.0412C123.321 39.0412 123.671 39.0995 124.021 39.2745C130.67 42.7154 134.927 49.0724 135.452 56.3625C135.51 57.004 135.977 57.4706 136.619 57.4706H138.427C139.476 57.4706 140.409 58.4037 140.409 59.4535C140.409 60.5032 139.476 61.4364 138.427 61.4364H90.8952ZM132.245 57.9371C132.07 57.4706 132.011 57.0623 131.953 56.5957C131.603 51.5218 128.92 46.7979 124.779 43.7652V45.0483C124.779 47.6144 122.68 49.7139 120.114 49.7139C117.548 49.7139 115.448 47.6144 115.448 45.0483V40.4992H114.048V44.9899C114.048 47.556 111.949 49.6556 109.383 49.6556C106.817 49.6556 104.717 47.556 104.717 44.9899V43.6486C100.401 46.6812 97.7187 51.4635 97.3105 56.5957C97.2521 57.0623 97.1938 57.4706 97.0189 57.9371H132.245Z" fill="white" stroke="white" stroke-width="2"/>
<path d="M82.8255 113.27C81.3092 113.27 79.9095 112.628 78.9764 111.52C78.1599 110.529 77.81 109.246 78.1016 108.021C80.4344 96.0653 91.3404 86.2674 105.512 83.468C100.088 79.9688 96.7642 73.5535 96.7642 66.38V65.9718H131.523V66.38C131.523 73.4952 128.199 79.9688 122.717 83.468C136.889 86.3257 147.795 96.1236 150.128 108.021C150.361 109.246 150.069 110.529 149.253 111.52C148.32 112.628 146.92 113.27 145.404 113.27H82.8255ZM114.085 86.0924C106.095 86.0924 98.3971 88.4253 92.3901 92.741C86.6164 96.8817 82.7672 102.539 81.5425 108.663C81.4842 108.954 81.6008 109.187 81.7174 109.246C82.009 109.596 82.359 109.771 82.8255 109.771H145.462C145.928 109.771 146.337 109.596 146.57 109.304C146.628 109.246 146.803 109.012 146.687 108.721C145.52 102.539 141.671 96.8817 135.839 92.741C129.774 88.4253 122.075 86.0924 114.085 86.0924ZM100.438 69.471C101.721 77.0527 107.379 82.5349 114.027 82.5349C120.676 82.5349 126.333 77.0527 127.616 69.471H100.438Z" fill="white" stroke="white"/>
<path d="M228.5 75C228.5 95.4873 215.822 114.1 195.19 127.615C174.562 141.126 146.035 149.5 114.5 149.5C82.9649 149.5 54.4382 141.126 33.8102 127.615C13.178 114.1 0.5 95.4873 0.5 75C0.5 54.5127 13.178 35.8998 33.8102 22.3853C54.4382 8.87351 82.9649 0.5 114.5 0.5C146.035 0.5 174.562 8.87351 195.19 22.3853C215.822 35.8998 228.5 54.5127 228.5 75Z" stroke="white"/>
</svg>
