<svg width="50" height="50" viewBox="0 0 50 50" fill="none" xmlns="http://www.w3.org/2000/svg">
<circle cx="25" cy="25" r="24.5" stroke="white"/>
<path d="M38.4715 30.3393H37.4603C37.0723 24.5671 32.7615 19.8524 27.1778 18.8471C27.2373 18.6422 27.2697 18.426 27.2697 18.2021C27.2697 16.923 26.229 15.8824 24.9498 15.8824C23.6707 15.8824 22.63 16.923 22.63 18.2021C22.63 18.4259 22.6625 18.6422 22.7219 18.8471C17.1381 19.8525 12.8274 24.5671 12.4394 30.3393H11.428H10.5882V32.2125H11.428V35.2307H38.4715V32.2125H39.3113V30.3393H38.4715ZM24.9498 17.7556C25.196 17.7556 25.3964 17.956 25.3964 18.2021C25.3964 18.4483 25.196 18.6487 24.9498 18.6487C24.7036 18.6487 24.5032 18.4483 24.5032 18.2021C24.5032 17.956 24.7036 17.7556 24.9498 17.7556ZM24.9498 20.522C30.5455 20.522 35.1483 24.8532 35.5826 30.3393H14.317C14.7513 24.8532 19.3541 20.522 24.9498 20.522ZM36.5982 33.3575H13.3013V32.2125H36.5983V33.3575H36.5982Z" fill="white"/>
</svg>
