<svg width="108" height="86" viewBox="0 0 108 86" fill="none" xmlns="http://www.w3.org/2000/svg">
<path d="M105.139 38.567L99.5593 30.8211C98.3106 29.0673 96.6617 27.6364 94.7493 26.6473C92.837 25.6581 90.7164 25.1392 88.5634 25.1336H64.8381V13.5418C64.8381 9.95029 63.4114 6.50588 60.8718 3.9663C58.3323 1.42672 54.8878 0 51.2963 0H13.5418C9.95337 0.0100056 6.51477 1.43994 3.97736 3.97735C1.43994 6.51477 0.0100056 9.95337 0 13.5418V67.384C0 69.5389 0.856033 71.6055 2.37978 73.1293C3.90353 74.653 5.97018 75.5091 8.12508 75.5091H14.7335C15.1425 78.4072 16.5844 81.0601 18.7939 82.9797C21.0034 84.8992 23.8317 85.9562 26.7586 85.9562C29.6854 85.9562 32.5138 84.8992 34.7233 82.9797C36.9328 81.0601 38.3747 78.4072 38.7837 75.5091H68.9007C69.3097 78.4072 70.7516 81.0601 72.9611 82.9797C75.1706 84.8992 77.999 85.9562 80.9258 85.9562C83.8527 85.9562 86.681 84.8992 88.8905 82.9797C91.1 81.0601 92.5419 78.4072 92.9509 75.5091H99.5593C101.714 75.5091 103.781 74.653 105.305 73.1293C106.828 71.6055 107.684 69.5389 107.684 67.384V46.4213C107.671 43.6025 106.781 40.8576 105.139 38.567ZM26.7586 80.5466C25.4194 80.5466 24.1104 80.1495 22.9969 79.4055C21.8834 78.6615 21.0156 77.6041 20.5031 76.3668C19.9906 75.1296 19.8565 73.7682 20.1178 72.4548C20.3791 71.1414 21.0239 69.9349 21.9708 68.988C22.9178 68.041 24.1242 67.3962 25.4377 67.1349C26.7511 66.8737 28.1125 67.0078 29.3497 67.5202C30.5869 68.0327 31.6444 68.9005 32.3884 70.014C33.1324 71.1275 33.5295 72.4366 33.5295 73.7757C33.5295 75.5715 32.8161 77.2937 31.5463 78.5635C30.2766 79.8333 28.5544 80.5466 26.7586 80.5466ZM59.4214 70.0923H38.4045C37.6159 67.623 36.0627 65.4683 33.9693 63.9393C31.876 62.4104 29.3508 61.5864 26.7586 61.5864C24.1664 61.5864 21.6412 62.4104 19.5479 63.9393C17.4545 65.4683 15.9013 67.623 15.1126 70.0923H8.12508C7.40678 70.0923 6.7179 69.807 6.20998 69.2991C5.70206 68.7912 5.41672 68.1023 5.41672 67.384V13.5418C5.41672 11.3869 6.27275 9.32025 7.7965 7.7965C9.32025 6.27275 11.3869 5.41672 13.5418 5.41672H51.2963C53.4512 5.41672 55.5179 6.27275 57.0416 7.7965C58.5654 9.32025 59.4214 11.3869 59.4214 13.5418V70.0923ZM80.9258 80.5466C79.5866 80.5466 78.2776 80.1495 77.1641 79.4055C76.0506 78.6615 75.1828 77.6041 74.6703 76.3668C74.1578 75.1296 74.0237 73.7682 74.285 72.4548C74.5463 71.1414 75.1911 69.9349 76.1381 68.988C77.085 68.041 78.2914 67.3962 79.6049 67.1349C80.9183 66.8737 82.2797 67.0078 83.5169 67.5202C84.7541 68.0327 85.8116 68.9005 86.5556 70.014C87.2996 71.1275 87.6967 72.4366 87.6967 73.7757C87.6967 75.5715 86.9834 77.2937 85.7136 78.5635C84.4438 79.8333 82.7216 80.5466 80.9258 80.5466ZM102.268 67.384C102.268 68.1023 101.982 68.7912 101.474 69.2991C100.967 69.807 100.278 70.0923 99.5593 70.0923H92.5718C91.7831 67.623 90.2299 65.4683 88.1365 63.9393C86.0432 62.4104 83.518 61.5864 80.9258 61.5864C78.3336 61.5864 75.8084 62.4104 73.7151 63.9393C71.6217 65.4683 70.0686 67.623 69.2799 70.0923H64.8381V30.5503H88.5634C89.8557 30.559 91.1278 30.8725 92.2761 31.4655C93.4244 32.0585 94.4165 32.9141 95.1718 33.9628L100.751 41.7087C101.726 43.0879 102.255 44.7324 102.268 46.4213V67.384Z" fill="white"/>
<path d="M86.4997 44.0921H75.6663C74.948 44.0921 74.2591 43.8068 73.7512 43.2989C73.2433 42.791 72.9579 42.1021 72.9579 41.3838C72.9579 40.6655 73.2433 39.9766 73.7512 39.4687C74.2591 38.9608 74.948 38.6754 75.6663 38.6754H86.4997C87.218 38.6754 87.9069 38.9608 88.4148 39.4687C88.9228 39.9766 89.2081 40.6655 89.2081 41.3838C89.2081 42.1021 88.9228 42.791 88.4148 43.2989C87.9069 43.8068 87.218 44.0921 86.4997 44.0921Z" fill="white"/>
</svg>
