<svg width="95" height="64" viewBox="0 0 95 64" fill="none" xmlns="http://www.w3.org/2000/svg">
<path d="M91.7007 47.545H88.375C87.099 28.5617 72.922 13.0565 54.5586 9.75032C54.7542 9.07653 54.8608 8.36548 54.8608 7.62915C54.8608 3.42243 51.4384 0 47.2315 0C43.0246 0 39.6022 3.42243 39.6022 7.62915C39.6022 8.36511 39.709 9.07635 39.9044 9.75032C21.5408 13.0567 7.36403 28.5617 6.08804 47.545H2.76193H0V53.7055H2.76193V63.6315H91.7007V53.7055H94.4627V47.545H91.7007ZM47.2313 6.16074C48.0411 6.16074 48.7001 6.81958 48.7001 7.62915C48.7001 8.43873 48.0411 9.09775 47.2313 9.09775C46.4216 9.09775 45.7627 8.43873 45.7627 7.62915C45.7627 6.81958 46.4216 6.16074 47.2313 6.16074ZM47.2313 15.2585C65.634 15.2585 80.7715 29.5028 82.1999 47.545H12.2628C13.6912 29.5028 28.8286 15.2585 47.2313 15.2585ZM85.54 57.4709H8.92266V53.7055H85.5402V57.4709H85.54Z" fill="white"/>
</svg>
