<svg width="50" height="50" viewBox="0 0 50 50" fill="none" xmlns="http://www.w3.org/2000/svg">
<circle cx="25" cy="25" r="24.5" stroke="white"/>
<path d="M34.2002 15.2941H21.4448C20.2755 15.2941 19.3189 16.2508 19.3189 17.42V19.5459C15.8111 19.5459 12.9412 22.4159 12.9412 25.9236V32.3013H15.0671C15.0671 34.0627 16.4946 35.4902 18.2559 35.4902C20.0172 35.4902 21.4448 34.0627 21.4448 32.3013H25.6966C25.6966 34.0627 27.1241 35.4902 28.8854 35.4902C30.6468 35.4902 32.0743 34.0627 32.0743 32.3013H34.2002C35.3694 32.3013 36.3261 31.3447 36.3261 30.1754V17.42C36.3261 16.2508 35.3694 15.2941 34.2002 15.2941ZM18.2559 33.3643C17.6697 33.3643 17.193 32.8876 17.193 32.3013C17.193 31.7151 17.6697 31.2384 18.2559 31.2384C18.8421 31.2384 19.3189 31.7151 19.3189 32.3013C19.3189 32.8876 18.8421 33.3643 18.2559 33.3643ZM19.3189 29.298C18.9862 29.18 18.629 29.1125 18.2559 29.1125C17.3126 29.1125 16.4675 29.5244 15.884 30.1754H15.0671V26.9866H19.3189V29.298ZM19.3189 24.8607H15.2069C15.6809 23.0298 17.3418 21.6718 19.3189 21.6718V24.8607ZM28.8854 33.3643C28.2992 33.3643 27.8225 32.8876 27.8225 32.3013C27.8225 31.7151 28.2992 31.2384 28.8854 31.2384C29.4717 31.2384 29.9484 31.7151 29.9484 32.3013C29.9484 32.8876 29.4717 33.3643 28.8854 33.3643ZM34.2002 30.1754H31.2574C30.6733 29.5244 29.8288 29.1125 28.8854 29.1125C27.9421 29.1125 27.097 29.5244 26.5135 30.1754H21.4448V17.42H34.2002V30.1754Z" fill="white"/>
</svg>
