<svg width="50" height="50" viewBox="0 0 50 50" fill="none" xmlns="http://www.w3.org/2000/svg">
<circle cx="25" cy="25" r="24.5" stroke="white"/>
<path d="M24.1774 25.1034C23.9402 25.1034 23.7426 24.9058 23.7426 24.6687C23.7426 24.4315 23.9402 24.2339 24.1774 24.2339H26.193C26.4301 24.2339 26.6277 24.4315 26.6277 24.6687C26.6277 24.9058 26.4301 25.1034 26.193 25.1034H24.1774ZM17.1424 20.0446C16.7867 20.0446 16.4706 19.7284 16.4706 19.3727C16.4706 19.017 16.7867 18.7008 17.1424 18.7008H17.755C17.9724 18.7008 18.1503 18.5427 18.1503 18.3254C18.3281 15.875 19.8102 13.642 22.0234 12.5354C22.1222 12.4761 22.2408 12.4563 22.3198 12.4563C22.6755 12.4563 22.9917 12.7725 22.9917 13.1282V14.5115C22.9917 14.7289 23.1696 14.9067 23.3869 14.9067C23.6043 14.9067 23.7821 14.7289 23.7821 14.5115V12.4761C23.7821 12.1402 24.039 11.8438 24.3552 11.8042C24.6121 11.7647 24.8888 11.7647 25.1457 11.7647C25.4421 11.7647 25.7582 11.7845 26.0151 11.8042C26.3511 11.8438 26.5882 12.1204 26.5882 12.4761V14.4917C26.5882 14.7091 26.7661 14.887 26.9834 14.887C27.2008 14.887 27.3787 14.7091 27.3787 14.4917V13.1282C27.3787 12.7725 27.6948 12.4563 28.0505 12.4563C28.1296 12.4563 28.2481 12.4761 28.3667 12.5354C30.6195 13.7013 32.062 15.8552 32.2399 18.3254C32.2596 18.5427 32.4177 18.7008 32.6351 18.7008H33.2477C33.6034 18.7008 33.9196 19.017 33.9196 19.3727C33.9196 19.7284 33.6034 20.0446 33.2477 20.0446H17.1424ZM31.153 18.8589C31.0937 18.7008 31.074 18.5625 31.0542 18.4044C30.9356 16.6852 30.0266 15.0846 28.6236 14.057V14.4917C28.6236 15.3612 27.9122 16.0726 27.0427 16.0726C26.1732 16.0726 25.4618 15.3612 25.4618 14.4917V12.9504H24.9876V14.472C24.9876 15.3415 24.2762 16.0529 23.4067 16.0529C22.5372 16.0529 21.8258 15.3415 21.8258 14.472V14.0175C20.3635 15.045 19.4545 16.6654 19.3162 18.4044C19.2964 18.5625 19.2766 18.7008 19.2173 18.8589H31.153Z" fill="white" stroke="white" stroke-width="2"/>
<path d="M14.4081 37.6076C13.8943 37.6076 13.42 37.3902 13.1038 37.0147C12.8272 36.6788 12.7086 36.244 12.8074 35.8291C13.5979 31.7781 17.2932 28.4582 22.0951 27.5097C20.2573 26.324 19.131 24.1503 19.131 21.7197V21.5814H30.9085V21.7197C30.9085 24.1305 29.7821 26.324 27.9246 27.5097C32.7265 28.478 36.4219 31.7978 37.2123 35.8291C37.2913 36.244 37.1925 36.6788 36.9159 37.0147C36.5997 37.3902 36.1254 37.6076 35.6117 37.6076H14.4081ZM25 28.3989C22.2927 28.3989 19.6843 29.1894 17.6489 30.6517C15.6925 32.0547 14.3883 33.9715 13.9733 36.0464C13.9536 36.1452 13.9931 36.2243 14.0326 36.244C14.1314 36.3626 14.25 36.4219 14.4081 36.4219H35.6314C35.7895 36.4219 35.9278 36.3626 36.0069 36.2638C36.0266 36.244 36.0859 36.165 36.0464 36.0662C35.6512 33.9715 34.3469 32.0547 32.3708 30.6517C30.3157 29.1894 27.7072 28.3989 25 28.3989ZM20.3759 22.767C20.8106 25.336 22.7275 27.1935 24.9802 27.1935C27.233 27.1935 29.1498 25.336 29.5845 22.767H20.3759Z" fill="white" stroke="white"/>
</svg>
